<svg xmlns="http://www.w3.org/2000/svg" xmlns:xlink="http://www.w3.org/1999/xlink" width="250" height="250" version="1.1" viewBox="0 0 250 250"><title>illustration-ended</title><desc>Created with Sketch.</desc><defs><circle id="path-1" cx="125" cy="125" r="125"/><rect id="path-3" width="14" height="34" x="0" y="0"/></defs><g id="Desktop" fill="none" fill-rule="evenodd" stroke="none" stroke-width="1"><g id="Room---Attendee---Ended" transform="translate(-595.000000, -304.000000)"><g id="illustration-ended" transform="translate(595.000000, 304.000000)"><g id="character"><mask id="mask-2" fill="#fff"><use xlink:href="#path-1"/></mask><use id="background" fill="#F0F0F0" xlink:href="#path-1"/><g id="body" fill="#FFF" mask="url(#mask-2)"><g><path d="M0,0 L140,0 L140,100 L0,100 L0,0 Z" transform="translate(55.000000, 75.000000)"/></g></g><g id="face" fill="#A9AEB2" mask="url(#mask-2)"><g transform="translate(108.000000, 111.000000)"><circle id="eye-left" cx="2" cy="3" r="2" stroke="none"/><path id="eye-right" stroke="none" d="M31.0909091,5 C32.1954786,5 33.0909091,4.1045695 33.0909091,3 C33.0909091,1.8954305 32.1954786,1 31.0909091,1 C29.9863396,1 29.0909091,1.8954305 29.0909091,3 C29.0909091,4.1045695 29.9863396,5 31.0909091,5 Z"/><path id="open-smiling" stroke="#A9AEB2" stroke-linecap="round" stroke-linejoin="round" stroke-width="2" d="M12,14 C12,14 13.8401826,17 17.2058056,17 C20.5714286,17 22,14 22,14 L12,14 Z"/></g></g><g id="hand-right" mask="url(#mask-2)"><g transform="translate(197.878680, 130.121320) rotate(-302.000000) translate(-197.878680, -130.121320) translate(190.878680, 113.121320)"><mask id="mask-4" fill="#fff"><use xlink:href="#path-3"/></mask><use id="Mask" fill="#FFF" fill-rule="evenodd" stroke="none" xlink:href="#path-3"/></g></g></g></g></g></g></svg>