<svg xmlns="http://www.w3.org/2000/svg" xmlns:xlink="http://www.w3.org/1999/xlink" width="22" height="18" version="1.1" viewBox="0 0 22 18"><title>monitor</title><desc>Created with Sketch.</desc><g id="Desktop" fill="none" fill-rule="evenodd" stroke="none" stroke-width="1"><g id="Room---Host" fill="#3A3B3D" transform="translate(-1173.000000, -95.000000)"><g id="Host-View---Default" transform="translate(1162.000000, 83.000000)"><path id="monitor" d="M27.6083261,28.7391304 C27.6083261,29.2673696 27.1800435,29.6956522 26.6518043,29.6956522 L17.3484348,29.6956522 C16.8201957,29.6956522 16.391913,29.2673696 16.391913,28.7391304 C16.391913,28.2108913 16.8201957,27.7826087 17.3484348,27.7826087 L26.6518043,27.7826087 C27.1800435,27.7826087 27.6083261,28.2108913 27.6083261,28.7391304 L27.6083261,28.7391304 Z M12.9130435,24.4347826 L31.0869565,24.4347826 L31.0869565,13.9130435 L12.9130435,13.9130435 L12.9130435,24.4347826 Z M33,12.9565217 C33,12.4282826 32.5719565,12 32.0434783,12 L11.9565217,12 C11.4282826,12 11,12.4282826 11,12.9565217 L11,25.3913043 C11,25.9195435 11.4282826,26.3478261 11.9565217,26.3478261 L32.0434783,26.3478261 C32.5719565,26.3478261 33,25.9195435 33,25.3913043 L33,12.9565217 Z"/></g></g></g></svg>